<?xml version="1.0" standalone="no"?>
<!DOCTYPE svg PUBLIC "-//W3C//DTD SVG 20010904//EN"
 "http://www.w3.org/TR/2001/REC-SVG-20010904/DTD/svg10.dtd">
<svg version="1.0" xmlns="http://www.w3.org/2000/svg"
 width="700.000000pt" height="700.000000pt" viewBox="0 0 700.000000 700.000000"
 preserveAspectRatio="xMidYMid meet">
<metadata>
Created by potrace 1.14, written by Peter Selinger 2001-2017
</metadata>
<g transform="translate(0.000000,700.000000) scale(0.100000,-0.100000)"
fill="#000000" stroke="none">
<path d="M1955 6246 c-22 -7 -43 -13 -48 -14 -4 -1 -27 -10 -51 -21 -94 -41
-169 -139 -197 -257 -13 -56 -20 -4755 -7 -4857 21 -159 152 -300 318 -343 63
-16 158 -15 205 2 151 54 257 174 284 319 5 28 9 437 9 929 1 483 2 880 5 882
2 2 383 6 848 8 464 2 864 7 889 10 559 81 962 320 1227 728 110 170 204 412
237 613 3 17 7 44 10 60 18 112 24 352 11 456 -3 24 -8 64 -11 89 -3 25 -10
65 -15 90 -6 25 -13 56 -15 70 -11 60 -59 202 -101 297 -130 296 -363 557
-638 714 -208 119 -470 200 -735 228 -140 15 -2177 12 -2225 -3z m2075 -720
c414 -66 702 -319 798 -701 32 -129 36 -334 8 -465 -84 -403 -399 -681 -836
-736 -30 -4 -387 -8 -792 -8 l-738 -2 0 36 c-1 44 -1 1826 0 1861 l0 26 758
-2 c416 -1 777 -6 802 -9z"/>
</g>
</svg>
