<svg xmlns="http://www.w3.org/2000/svg" width="28.338" height="23.375" viewBox="0 0 28.338 23.375">
  <g id="Group_646" data-name="Group 646" transform="translate(-1173 -1623.813)">
    <g id="Polygon_4" data-name="Polygon 4" transform="translate(1201.338 1623.813) rotate(90)" fill="none">
      <path d="M9.164,3.925a3,3,0,0,1,5.047,0L20.4,13.558a3,3,0,0,1-2.524,4.622H5.495a3,3,0,0,1-2.524-4.622Z" stroke="none"/>
      <path d="M 11.68747997283936 5.547762870788574 L 11.6875 5.547772407531738 L 5.494989395141602 15.18055248260498 L 17.88000106811523 15.18055248260498 C 17.8800048828125 15.18055248260498 17.88000679016113 15.18055248260498 17.8800106048584 15.18055248260498 L 11.68747997283936 5.547762870788574 M 11.68749904632568 2.547775268554688 C 12.65404033660889 2.547775268554688 13.62057971954346 3.007017135620117 14.21103000640869 3.925502777099609 L 20.40353965759277 13.55828285217285 C 21.68701934814453 15.55481243133545 20.25349998474121 18.1805534362793 17.88000106811523 18.1805534362793 L 5.494989395141602 18.1805534362793 C 3.121500015258789 18.1805534362793 1.687969207763672 15.55481243133545 2.971460342407227 13.55828285217285 L 9.163960456848145 3.925502777099609 C 9.754414558410645 3.007017135620117 10.72095775604248 2.547775268554688 11.68749904632568 2.547775268554688 Z" stroke="none" fill="#fff"/>
    </g>
    <line id="Line_8" data-name="Line 8" x1="9.956" transform="translate(1174.5 1635.5)" fill="none" stroke="#fff" stroke-linecap="round" stroke-width="3"/>
  </g>
</svg>
