<?xml version="1.0" encoding="UTF-8"?>
<svg xmlns="http://www.w3.org/2000/svg" width="568.58" height="414.21" viewBox="0 0 568.58 414.21">
<path id="clip-path-pebble" d="M493.32,316.33c17.39-13.97,36.14-29.26,48.57-45.09,26.81-34.13,31.96-70.62,20.34-105.55-8.85-26.6-33.24-48.09-57.81-67.33-8.21-6.33-16.9-12.01-26-16.98-19.65-10.91-39.88-21.35-59.84-31.99C379.38,28.48,341.58,6.37,289.47,1.7c-52.37-4.69-102.95,4.52-151.04,24.34-38.05,15.69-62.82,37.98-86.71,63.15-19.56,20.63-30.81,45.44-38.33,69.02-2.02,6.38-3.72,12.87-5.07,19.42-3.25,15.57-7.95,32.03-7.81,47.72,.17,17.77,8.86,44.34,12.43,58.33,4.64,13.66,11.6,29.97,15.9,37.29,4.13,7.04,7.59,14.43,13.37,20.83,21.28,23.59,48.05,39.56,82.56,53.05,10.26,4.01,22.63,6.01,33.73,8.45,10.76,2.37,21.56,5.11,32.76,6.74,17.68,2.58,35.43,3.06,53.79,3.49,31.13,.73,57.58-1.18,89.27-8.6,14.37-3.36,32.39-10.71,45.86-15.92,2.53-.98,4.99-1.87,7.42-2.99,17.51-8.08,34.7-19.77,49.28-29.07,19.55-12.51,38.4-26.08,56.47-40.65"/>
</svg>