<?xml version="1.0" encoding="UTF-8"?>
<svg id="Layer_2" data-name="Layer 2" xmlns="http://www.w3.org/2000/svg" width="1424.12" height="85.08" viewBox="0 0 1424.12 85.08">
  <g id="Layer_2-2" data-name="Layer 2">
    <path d="M463.55,52.48h.03c1.18,.22,2.37,.44,3.57,.67,11.56,2.19,23.95,4.7,37.33,7.53,1.82,.39,3.64,.77,5.49,1.17,2.34,.5,4.65,.99,6.93,1.46,.94,.2,1.85,.38,2.78,.57,1,.21,1.98,.41,2.97,.62,46.98,9.34,81.21,12.43,110.52,11.58-40.97-42.19-83.15-103.83-138.61-61.67-17.32,13.17-32.58,23.66-46.43,35.3,4.97,.86,10.1,1.78,15.41,2.77Z" style="fill: #ade0f9;"/>
    <path d="M463.55,52.48h.03c1.18,.22,2.37,.44,3.57,.67,11.56,2.19,23.95,4.7,37.33,7.53,1.82,.39,3.64,.77,5.49,1.17,2.34,.5,4.65,.99,6.93,1.46,.94,.2,1.85,.38,2.78,.57,1,.21,1.98,.41,2.97,.62,131.21,26.09,163.07,3.43,265.48-17.7-16.37-15.29-37.45-27.58-66.74-40.73-58.62-26.33-77.35,42.62-191.77,26.66-31.12-4.34-55.43,3.67-73.02,18.48,2.28,.41,4.59,.84,6.94,1.28Z" style="fill: #e0d3b4;"/>
    <path d="M1424.12,85.08c-45.74,0-123.8-1.91-189.58-12.4-61.3-9.78-120.23-29.89-149.18-40.4-60.02-21.8-135.54-41.96-293.38-6.27h0c-105.49,21.35-136.49,44.9-269.33,18.49-.99-.21-1.97-.41-2.97-.62-.93-.19-1.84-.37-2.78-.57-2.28-.47-4.59-.96-6.93-1.46-1.85-.4-3.67-.78-5.49-1.17-13.38-2.83-25.77-5.34-37.33-7.53-1.2-.23-2.39-.45-3.57-.67h-.03c-49.63-9.29-94.04-12.19-166.56,15.04s-115.86,30.13-163.34,32.41c-94.96,4.57-76.75,5.15-133.65,5.15H1424.12Z" style="fill: #006781;"/>
  </g>
</svg>