<svg xmlns="http://www.w3.org/2000/svg" xmlns:xlink="http://www.w3.org/1999/xlink" width="32" height="32" viewBox="0 0 32 32">
  <defs>
    <clipPath id="clip-path">
      <rect id="Rectangle_6" data-name="Rectangle 6" width="32" height="32" transform="translate(-3.038 -3.038)" fill="none" stroke="#d29f1c" stroke-linejoin="round" stroke-width="3"/>
    </clipPath>
  </defs>
  <g id="Group_245" data-name="Group 245" transform="translate(3.038 3.038)" clip-path="url(#clip-path)">
    <path id="Path_8" data-name="Path 8" d="M7.35,18.772C4.792,16.255.485,10.923.035,6.673A5.49,5.49,0,0,1,.991,2.859,7.585,7.585,0,0,1,4.391.194a1.586,1.586,0,0,1,2.315.9l2.607,5.63c.508,1.1-.839,2.123-1.612,3.2-.492.686-.564.87-.155,1.6a21.44,21.44,0,0,0,3.144,3.9,21.417,21.417,0,0,0,3.9,3.144c.735.409.919.336,1.6-.155,1.079-.773,2.107-2.12,3.2-1.612l5.63,2.608a1.585,1.585,0,0,1,.905,2.315,7.588,7.588,0,0,1-2.665,3.4,5.492,5.492,0,0,1-3.815.955c-4.249-.449-9.581-4.757-12.1-7.315" transform="translate(-0.063 -0.25)" fill="none" stroke="#d29f1c" stroke-linejoin="round" stroke-width="3" fill-rule="evenodd"/>
  </g>
</svg>
