<svg xmlns="http://www.w3.org/2000/svg" width="41.681" height="40.718" viewBox="0 0 41.681 40.718">
  <g id="Group_358" data-name="Group 358" transform="matrix(0.719, -0.695, 0.695, 0.719, -823.519, -143.796)">
    <g id="Polygon_1" data-name="Polygon 1" transform="translate(508.673 691.119) rotate(90)" fill="none">
      <path d="M11.3,3.925a3,3,0,0,1,5.047,0l8.325,12.949A3,3,0,0,1,22.144,21.5H5.495a3,3,0,0,1-2.524-4.622Z" stroke="none"/>
      <path d="M 13.81950855255127 5.547779083251953 L 13.81951141357422 5.547773361206055 L 5.495000839233398 18.49701309204102 C 5.495000839233398 18.49701309204102 5.495000839233398 18.49701309204102 5.494991302490234 18.49701309204102 L 22.14402198791504 18.49701309204102 C 22.1440258026123 18.49701309204102 22.14402770996094 18.49701309204102 22.1440315246582 18.49701309204102 L 13.81951141357422 5.547782897949219 C 13.8195104598999 5.547780990600586 13.81950950622559 5.547779083251953 13.81950855255127 5.547779083251953 M 13.81950664520264 2.547775268554688 C 14.78604602813721 2.547775268554688 15.75258636474609 3.00701904296875 16.34304046630859 3.925502777099609 L 24.66756057739258 16.8747444152832 C 25.95105171203613 18.87128257751465 24.51752090454102 21.49701309204102 22.14402198791504 21.49701309204102 L 5.494991302490234 21.49701309204102 C 3.121501922607422 21.49701309204102 1.687971115112305 18.87128257751465 2.971462249755859 16.8747444152832 L 11.29597091674805 3.925502777099609 C 11.88642597198486 3.00701904296875 12.85296630859375 2.547775268554688 13.81950664520264 2.547775268554688 Z" stroke="none" fill="#d29f1c"/>
    </g>
    <line id="Line_2" data-name="Line 2" x1="11.772" transform="translate(476.939 704.939)" fill="none" stroke="#d29f1c" stroke-linecap="round" stroke-width="3"/>
    <rect id="Rectangle_424" data-name="Rectangle 424" width="38" height="38" transform="matrix(0.719, 0.695, -0.695, 0.719, 490.613, 677.458)" fill="none"/>
  </g>
</svg>
