<?xml version="1.0" encoding="UTF-8"?>
<svg id="Layer_2" data-name="Layer 2" xmlns="http://www.w3.org/2000/svg" width="1040.59" height="554.14" viewBox="0 0 1040.59 554.14">
  <g id="Layer_1-2" data-name="Layer 1">
    <path id="pebble-large-sand" d="M466.16,387.36c7.86,13.79,16.94,28.96,27.13,41.21,10.01,12.03,23.05,22.45,34.93,32.36,3.74,3.13,7.69,6.01,11.81,8.63,14.99,9.48,30.79,17.79,46.16,26.58,26.35,15.07,52.76,31.56,80.87,42.72,3.94,1.54,7.96,2.86,12.04,3.95,15.16,4.1,31.15,8.43,46.77,10.21,21.04,2.4,42.69,.65,63.58-1.92,19.08-2.35,38.05-6.81,56.59-11.69,31.68-8.37,62.92-18.33,93.61-29.83,18.06-7.62,33.71-20.02,45.25-35.87,10.73-10.33,19.21-22.77,24.9-36.53,18.2-31.59,31.19-68.38,30.79-105.6-.18-28.1-2.88-56.12-8.05-83.74-1.65-8.66-3.47-17.3-5.78-25.82-5.61-20.7-11.98-41.66-20.28-61.5-8.06-19.26-20.99-36.93-32.41-53.9-4.22-6.4-9.07-12.36-14.47-17.79-13.31-13.11-27.18-26.55-42.4-37.46-15.17-10.88-34.35-19.69-50.12-27.43-23.23-11.39-49.77-16.37-74.62-21.04-25.45-4.79-52.17-2.57-77.53-.84-17.06,1.15-33.68,4.81-49.93,9.84-28.16,8.71-55.56,17.21-82.03,29.97-25.27,12.18-50.35,26.49-72.3,43.94-14.98,12.12-27.86,26.63-38.12,42.95-7.95,12.55-14.36,26.95-20.25,40.54-1.55,3.5-2.86,7.11-3.9,10.79-4.92,17.94-9.18,36.52-10.53,55.24-1.39,19.3,.81,39.84,2.15,58.69,2.06,28.95,10.37,56.68,21.41,83.71,1.37,3.31,2.95,6.53,4.74,9.64" style="fill: #e0d3b4;"/>
    <path id="pebble-small-light-blue-3" d="M97.19,302.05S-12.7,256.19,1.22,184.89C15.14,113.6,24.52,69.34,65.7,63.55c41.18-5.79,173.83,55.81,166.2,102.65-7.63,46.85-78.82,167.66-134.71,135.85" style="fill: #def2fc;"/>
  </g>
</svg>