<?xml version="1.0" encoding="UTF-8"?>
<svg id="Layer_2" data-name="Layer 2" xmlns="http://www.w3.org/2000/svg" width="307.13" height="122.57" viewBox="0 0 307.13 122.57">
  <g id="premius-kuntoutus-logo">
    <path id="kuntoutus" d="M12.41,107.54l8.08,14.55h-5.5l-6.6-12.19h-3.49v12.19H0v-27.92H4.89v11.36h3.49l6.34-11.36h5.32l-7.63,13.29v.08Zm38.29,4.48c0,3.78-2.39,5.9-6,5.9s-5.96-2.12-5.96-5.86v-17.89h-4.9v17.89c0,6.25,4.36,10.5,10.89,10.5s10.85-4.25,10.85-10.5v-17.89h-4.9v17.85Zm38.18-1.73c0,1.65,.27,4.33,.27,4.33h-.08s-1.21-2.71-2.24-4.33l-10.21-16.12h-4.9v27.92h4.9v-16.08c0-1.65-.27-4.33-.27-4.33h.08s1.21,2.71,2.24,4.33l10.21,16.08h4.86v-27.92h-4.86v16.12Zm18.1-11.76h8.84v23.56h4.9v-23.56h8.84v-4.37h-22.58v4.37Zm61.82,9.4c0,8.22-6,14.63-13.93,14.63s-13.93-6.41-13.93-14.63,6-14.23,13.93-14.23,13.93,6.25,13.93,14.23Zm-5.05,0c0-5.51-3.95-9.59-8.88-9.59s-8.88,4.09-8.88,9.59,3.95,9.99,8.88,9.99,8.88-4.25,8.88-9.99Zm36.17,4.09c0,3.78-2.39,5.9-6,5.9s-5.96-2.12-5.96-5.86v-17.89h-4.9v17.89c0,6.25,4.36,10.5,10.89,10.5s10.85-4.25,10.85-10.5v-17.89h-4.9v17.85Zm17.76-13.49h8.84v23.56h4.9v-23.56h8.84v-4.37h-22.58v4.37Zm52.3,13.49c0,3.78-2.39,5.9-6,5.9s-5.96-2.12-5.96-5.86v-17.89h-4.9v17.89c0,6.25,4.36,10.5,10.89,10.5s10.85-4.25,10.85-10.5v-17.89h-4.9v17.85Zm24.48-10.3c0-1.97,1.78-3.34,4.06-3.34,3.38,0,5.96,2.44,5.96,2.44l2.13-4.13s-2.73-2.99-8.04-2.99-9.03,3.46-9.03,8.1c0,8.57,12.71,7.71,12.71,12.7,0,2.28-1.86,3.38-3.91,3.38-3.79,0-6.72-2.95-6.72-2.95l-2.66,3.81s3.3,3.81,9.3,3.81c5.62,0,8.88-3.74,8.88-8.18,0-8.93-12.67-7.71-12.67-12.66Z" style="fill: #d29f1c;"/>
    <path id="Premius" d="M26.08,2.51H5.01C1.76,2.51,0,4.27,0,7.43V60.24c0,2.51,2.13,4.64,4.73,4.64s4.55-2.13,4.55-4.64v-19.68H26.08c12.62,0,19.77-8.72,19.77-19.03S38.8,2.51,26.08,2.51Zm-1.21,29.89H9.28V10.67h15.59c6.68,0,11.42,4.36,11.42,10.86s-4.73,10.86-11.42,10.86Zm51.61-9.56c0,1.95-1.49,3.62-4.36,3.99-3.71,.37-8.91,3.06-10.86,6.4v27.47c0,2.32-1.95,4.18-4.18,4.18s-4.18-1.86-4.18-4.18V23.3c0-2.32,1.86-4.18,4.09-4.18s4.27,1.86,4.27,4.18v3.16c2.51-3.34,6.03-6.13,9.28-7.15,1.02-.28,1.67-.46,2.41-.46,2.41,0,3.53,1.86,3.53,3.99Zm25.15-4.36c-13.09,0-22.46,10.49-22.46,23.48,0,14.11,9.84,23.58,23.2,23.58,5.94,0,11.23-1.58,15.69-4.83,.93-.65,1.49-1.58,1.49-2.78,0-1.86-1.49-3.34-3.34-3.34-.74,0-1.39,.09-1.86,.46-3.34,2.41-7.33,3.62-11.14,3.62-9,0-14.57-6.31-15.22-13.92h30.54c3.16,0,4.92-1.49,4.92-3.99,0-11.79-8.35-22.28-21.81-22.28Zm-13.74,20.23c.46-6.13,4.73-13.37,13.74-13.37,9.47,0,13.46,7.43,13.64,13.37h-27.38Zm106.55-6.68v28.68c0,2.32-1.95,4.18-4.27,4.18s-4.08-1.86-4.08-4.18v-26.17c0-5.2-2.32-8.63-7.8-8.63-4.55,0-9,3.16-11.14,6.4v28.4c0,2.32-1.86,4.18-4.18,4.18s-4.18-1.86-4.18-4.18v-26.17c0-5.2-2.23-8.63-7.89-8.63-4.36,0-8.72,3.25-10.95,6.5v28.31c0,2.32-1.95,4.18-4.18,4.18s-4.18-1.86-4.18-4.18V23.3c0-2.32,1.86-4.18,4.08-4.18s4.27,1.86,4.27,4.18v2.6c1.86-2.78,7.8-7.43,14.48-7.43s10.77,3.53,12.16,8.35c2.6-4.18,8.54-8.35,15.13-8.35,8.26,0,12.72,4.55,12.72,13.55Zm20.42-26.73c0,2.97-2.41,5.38-5.38,5.38s-5.38-2.41-5.38-5.38,2.51-5.29,5.38-5.29,5.38,2.32,5.38,5.29Zm-1.11,18.01V60.7c0,2.32-1.95,4.18-4.27,4.18s-4.08-1.86-4.08-4.18V23.3c0-2.32,1.86-4.18,4.18-4.18s4.18,1.86,4.18,4.18Zm49.56,0V60.7c0,2.32-1.95,4.18-4.18,4.18s-4.18-1.86-4.18-4.18v-2.41c-3.34,3.71-9,7.24-15.96,7.24-9.56,0-14.29-4.83-14.29-14.29V23.3c0-2.32,1.86-4.18,4.18-4.18s4.18,1.86,4.18,4.18v25.15c0,7.43,3.71,9.65,9.47,9.65,5.2,0,9.93-2.97,12.44-6.31V23.3c0-2.32,1.86-4.18,4.08-4.18s4.27,1.86,4.27,4.18Zm43.81,28.49c0,7.7-6.31,13.74-18.1,13.74-6.22,0-11.79-1.58-16.34-5.01-.93-.65-1.58-1.76-1.58-2.97,0-2.04,1.58-3.62,3.62-3.62,.74,0,1.48,.28,2.04,.65,3.43,2.51,7.89,4.27,12.62,4.27,6.31,0,9.65-2.6,9.65-6.4,0-4.46-5.1-5.94-10.86-7.24-7.61-1.76-16.52-3.81-16.52-13.46,0-7.15,6.13-13.27,17.08-13.27,6.22,0,11.14,1.86,14.94,4.64,.84,.65,1.49,1.58,1.49,2.78,0,1.86-1.58,3.43-3.43,3.43-.65,0-1.39-.28-1.86-.65-2.88-2.13-6.78-3.43-11.04-3.43-5.66,0-9.19,2.23-9.19,5.85,0,3.9,4.83,5.2,10.4,6.5,7.8,1.76,17.08,3.9,17.08,14.2Z" style="fill: #5bc3f5;"/>
  </g>
</svg>